<?xml version="1.0" encoding="utf-8"?>
<!-- Generator: Adobe Illustrator 16.0.0, SVG Export Plug-In . SVG Version: 6.00 Build 0)  -->
<!DOCTYPE svg PUBLIC "-//W3C//DTD SVG 1.1//EN" "http://www.w3.org/Graphics/SVG/1.1/DTD/svg11.dtd">
<svg version="1.1" id="Layer_1" xmlns="http://www.w3.org/2000/svg" xmlns:xlink="http://www.w3.org/1999/xlink" x="0px" y="0px"
	 width="811.459px" height="740.963px" viewBox="0 0 811.459 740.963" enable-background="new 0 0 811.459 740.963"
	 xml:space="preserve">
<g>
	<path fill-rule="evenodd" clip-rule="evenodd" fill="#ABABAB" d="M588.367,533.615c-47.098,0-94.05,0-140.838,0
		c-13.762-31.453-27.472-62.791-41.779-95.497c-14.236,32.605-27.914,63.933-41.681,95.462c-46.677,0-93.629,0-140.973,0
		c-7.855-17.578-15.621-35.385-23.412-53.187c-5.324-12.163-10.704-24.315-16.101-36.454c-8.088-18.191-16.093-36.417-24.006-54.686
		c-5.461-12.605-11.22-25.104-16.762-37.686c-8.15-18.5-16.129-37.077-24.262-55.586c-4.163-9.476-8.587-18.836-12.742-28.315
		c-8.116-18.513-15.844-37.202-24.278-55.568c-5.803-12.636-11.265-25.413-16.915-38.11c-8.095-18.188-16.255-36.342-23.929-54.719
		c-4.825-11.556-10.478-22.765-15.91-34.455c82.979,0,165.606,0,248.868,0c43.754,99.35,87.672,199.07,131.769,299.198
		c2.786-2.699,3.237-6.209,4.549-9.171c9.369-21.167,19.018-42.209,27.892-63.6c5.384-12.979,11.595-25.611,17.252-38.48
		c6.642-15.112,12.705-30.49,19.731-45.418c5.991-12.73,11.512-25.656,17.181-38.52c6.656-15.104,13.29-30.225,19.857-45.367
		c4.115-9.484,8.433-18.928,12.737-28.352c4.56-9.983,8.343-20.32,13.635-30.339c82.438,0,165.186,0,248.318,0
		c-4.775,10.623-9.638,21.198-14.298,31.861c-7.907,18.096-15.313,36.422-23.649,54.315c-5.812,12.474-11.173,25.137-16.859,37.658
		c-7.532,16.583-14.745,33.313-22.035,50.005c-8.091,18.525-15.831,37.211-24.267,55.577c-5.804,12.636-11.314,25.393-16.905,38.116
		c-8.008,18.226-16.176,36.378-23.997,54.689c-5.15,12.061-10.536,24.04-15.887,36.024c-8.496,19.032-17.021,38.047-25.191,57.224
		C598.697,511.463,593.427,522.481,588.367,533.615z M308.498,217.697c-33.836,76.794-67.249,152.631-100.543,228.199
		c9.681,21.99,19.261,43.752,28.856,65.55c37.766,0,75.313,0,113.128,0c14.801-33.628,29.539-67.114,43.982-99.93
		C365.328,346.639,337.065,282.515,308.498,217.697z M417.644,411.668c14.085,31.951,28.435,64.502,43.147,97.88
		c2.464-5.616,4.483-10.407,6.653-15.13c5.866-12.776,11.561-25.644,17.133-38.533c6.55-15.15,13.249-30.242,19.872-45.359
		c5.64-12.873,11.406-25.704,17.092-38.553c8.054-18.199,15.921-36.49,24.018-54.676c5.652-12.696,11.136-25.465,16.91-38.112
		c8.135-17.814,15.445-36.004,23.31-53.945c5.461-12.456,11.384-24.71,16.883-37.149c8.294-18.771,16.391-37.629,24.586-56.443
		c3.561-8.177,7.16-16.338,10.911-24.893c-29.08,0-57.519,0-86.007,0c-2.713,5.727-5.586,11.393-8.118,17.206
		c-7.819,17.963-15.399,36.031-23.282,53.966c-6.776,15.416-13.963,30.651-20.748,46.063c-10.508,23.867-20.766,47.844-31.25,71.721
		c-6.768,15.413-13.84,30.694-20.622,46.102C437.996,364.843,427.995,387.934,417.644,411.668z M661.897,106.755
		c-31.998,72.602-64.054,145.332-96.383,218.684c15.038,34.104,30.287,68.689,45.591,103.401
		c6.405-14.531,12.666-28.807,18.991-43.054c4.139-9.321,8.573-18.537,12.515-27.914c6.396-15.22,13.16-30.27,19.817-45.366
		c4.36-9.893,8.946-19.711,13.182-29.637c7.75-18.16,15.853-36.162,23.709-54.273c5.592-12.89,11.836-25.503,17.231-38.472
		c7.709-18.526,16.011-36.782,24.171-55.105c4.128-9.267,7.997-18.647,12.104-28.264
		C722.414,106.755,692.326,106.755,661.897,106.755z M196.218,418.798c14.977-33.992,29.849-67.748,44.459-100.907
		c-31.219-70.838-62.213-141.168-92.966-210.951c-30.112,0-59.471,0-89.219,0c1.92,4.074,3.758,7.647,5.314,11.34
		c4.08,9.676,8.387,19.244,12.728,28.807c8.353,18.403,16.114,37.074,24.299,55.555c4.254,9.607,8.679,19.16,12.835,28.791
		c6.541,15.153,13.182,30.267,19.845,45.366c5.674,12.857,11.24,25.762,17.166,38.517c8.316,17.902,15.79,36.195,23.616,54.325
		c4.524,10.479,8.962,20.994,13.576,31.434C190.493,407.005,193.389,412.814,196.218,418.798z M252.507,291.07
		c14.872-33.773,29.609-67.241,44.176-100.321c-12.479-28.254-24.826-56.211-37.081-83.958c-29.481,0-58.56,0-88.263,0
		C198.446,168.332,225.362,229.441,252.507,291.07z M483.611,511.329c30.656,0,60.984,0,91.247,0
		c2.15-5.061,4.065-9.779,6.145-14.425c5.492-12.266,11.174-24.45,16.455-36.806c0.754-1.764,2.089-3.821,0.974-6.323
		c-8.487-19.03-16.809-38.134-25.242-57.188c-5.373-12.143-10.941-24.2-16.197-36.394c-1.011-2.343-1.488-4.855-3.679-6.988
		C529.985,406.127,506.84,458.632,483.611,511.329z"/>
	<path fill-rule="evenodd" clip-rule="evenodd" fill="#626FA9" d="M459.797,136.146c-17.38,39.46-34.354,77.999-51.511,116.954
		c-17.216-39.029-34.226-77.594-51.557-116.885c16.907-38.396,34.126-77.5,51.54-117.05
		C425.659,58.645,442.835,97.639,459.797,136.146z M408.156,198.767c0.545-0.585,1.163-0.979,1.392-1.535
		c7.941-19.268,16.331-38.338,25.227-57.183c1.323-2.803,1.095-5.307-0.207-8.073c-4.924-10.471-9.663-21.019-13.988-31.767
		c-3.63-9.02-8.077-17.709-12.216-26.659c-0.545,0.585-1.163,0.979-1.393,1.534c-7.941,19.268-16.331,38.338-25.227,57.184
		c-1.323,2.802-1.095,5.307,0.207,8.073c4.925,10.47,9.662,21.018,13.988,31.767C399.569,181.126,404.017,189.816,408.156,198.767z"
		/>
	<g>
		<path fill="#626FA9" d="M75.129,619.721c-10.898,0-17.992,3.979-17.992,11.418c0,24.566,65.05,11.245,64.877,54.669
			c0,22.664-19.723,35.813-46.365,35.813c-19.377,0-38.234-7.785-51.209-19.377l9.688-19.549
			c12.457,11.072,28.892,17.819,41.867,17.819s20.761-4.845,20.761-13.321c0-25.259-65.05-10.899-65.05-53.978
			c0-21.106,18.166-34.602,45.327-34.602c16.09,0,32.179,5.191,43.771,12.803l-9.343,20.068
			C98.484,623.699,84.472,619.721,75.129,619.721z"/>
		<path fill="#626FA9" d="M237.922,599.652v20.587h-37.715v100.516h-23.355V620.239h-37.715v-20.587H237.922z"/>
		<path fill="#626FA9" d="M338.78,720.755l-20.934-35.812c-1.384,0.173-2.769,0.173-4.325,0.173h-27.335v35.639h-23.183V599.652
			h50.518c31.313,0,49.133,15.051,49.133,41.693c0,19.03-8.477,32.698-24.047,39.272l26.643,40.137H338.78z M286.187,664.701h27.335
			c17.301,0,26.988-7.438,26.988-22.663c0-14.878-9.688-22.145-26.988-22.145h-27.335V664.701z"/>
		<path fill="#626FA9" d="M485.483,599.652v20.241h-65.568v29.93h58.822v20.241h-58.822v30.449h67.645v20.241h-90.828V599.652
			H485.483z"/>
		<path fill="#626FA9" d="M598.624,695.15h-59.168l-10.725,25.604h-24.049l53.113-121.103h24.047l52.42,121.103H609.35
			L598.624,695.15z M590.319,675.255l-21.105-50.863l-21.453,50.863H590.319z"/>
		<path fill="#626FA9" d="M684.43,599.652l38.061,77.679l37.887-77.679h26.643v121.103h-21.105l-0.174-86.502l-35.811,74.046
			h-15.053l-35.811-74.046v86.502h-21.453V599.652H684.43z"/>
	</g>
</g>
</svg>
