<?xml version="1.0" encoding="utf-8"?>
<!-- Generator: Adobe Illustrator 16.0.0, SVG Export Plug-In . SVG Version: 6.00 Build 0)  -->
<!DOCTYPE svg PUBLIC "-//W3C//DTD SVG 1.1//EN" "http://www.w3.org/Graphics/SVG/1.1/DTD/svg11.dtd">
<svg version="1.1" id="Layer_1" xmlns="http://www.w3.org/2000/svg" xmlns:xlink="http://www.w3.org/1999/xlink" x="0px" y="0px"
	 width="3928px" height="612px" viewBox="0 0 3928 612" enable-background="new 0 0 3928 612" xml:space="preserve">
<g>
	<g>
		<path fill-rule="evenodd" clip-rule="evenodd" fill="#ABABAB" d="M674.692,532.225c-47.098,0-94.05,0-140.838,0
			c-13.762-31.453-27.472-62.791-41.779-95.497c-14.236,32.605-27.914,63.933-41.681,95.462c-46.677,0-93.629,0-140.973,0
			c-7.855-17.578-15.621-35.385-23.412-53.187c-5.324-12.163-10.704-24.315-16.101-36.454
			c-8.088-18.191-16.093-36.417-24.006-54.686c-5.461-12.605-11.22-25.104-16.762-37.686c-8.15-18.5-16.129-37.077-24.262-55.586
			c-4.163-9.476-8.587-18.836-12.742-28.315c-8.116-18.513-15.844-37.202-24.278-55.568c-5.803-12.636-11.265-25.413-16.915-38.11
			c-8.095-18.188-16.255-36.342-23.929-54.719c-4.825-11.556-10.478-22.765-15.91-34.455c82.979,0,165.606,0,248.868,0
			c43.754,99.35,87.672,199.07,131.769,299.198c2.786-2.699,3.237-6.209,4.549-9.171c9.369-21.167,19.018-42.209,27.892-63.6
			c5.384-12.979,11.595-25.611,17.252-38.48c6.642-15.112,12.705-30.49,19.731-45.418c5.991-12.73,11.512-25.656,17.181-38.52
			c6.656-15.104,13.29-30.225,19.857-45.367c4.115-9.484,8.433-18.928,12.737-28.352c4.56-9.983,8.343-20.32,13.635-30.339
			c82.438,0,165.186,0,248.318,0c-4.775,10.623-9.638,21.198-14.298,31.861c-7.907,18.096-15.313,36.422-23.649,54.315
			c-5.812,12.474-11.173,25.137-16.859,37.658c-7.532,16.583-14.745,33.313-22.035,50.005
			c-8.091,18.525-15.831,37.211-24.267,55.577c-5.804,12.636-11.314,25.393-16.905,38.116
			c-8.008,18.226-16.176,36.378-23.997,54.689c-5.15,12.061-10.536,24.04-15.887,36.024c-8.496,19.032-17.021,38.047-25.191,57.224
			C685.022,510.072,679.753,521.091,674.692,532.225z M394.823,216.307c-33.836,76.794-67.249,152.631-100.543,228.199
			c9.681,21.99,19.261,43.752,28.856,65.55c37.766,0,75.313,0,113.128,0c14.801-33.628,29.539-67.114,43.982-99.93
			C451.653,345.248,423.391,281.124,394.823,216.307z M503.97,410.277c14.085,31.951,28.435,64.502,43.147,97.88
			c2.464-5.616,4.483-10.407,6.653-15.13c5.866-12.776,11.561-25.644,17.133-38.533c6.55-15.15,13.249-30.242,19.872-45.359
			c5.64-12.873,11.406-25.704,17.092-38.553c8.054-18.199,15.921-36.49,24.018-54.676c5.652-12.696,11.136-25.465,16.91-38.112
			c8.135-17.814,15.445-36.004,23.31-53.945c5.461-12.456,11.384-24.71,16.883-37.149c8.294-18.771,16.391-37.629,24.586-56.443
			c3.561-8.177,7.16-16.338,10.911-24.893c-29.08,0-57.519,0-86.007,0c-2.713,5.727-5.586,11.393-8.118,17.206
			c-7.819,17.963-15.399,36.031-23.282,53.966c-6.776,15.416-13.963,30.651-20.748,46.063
			c-10.508,23.867-20.766,47.844-31.25,71.721c-6.768,15.413-13.84,30.694-20.622,46.102
			C524.321,363.452,514.32,386.543,503.97,410.277z M748.223,105.364c-31.998,72.602-64.054,145.332-96.383,218.684
			c15.038,34.104,30.287,68.689,45.591,103.401c6.405-14.531,12.666-28.807,18.991-43.054c4.139-9.321,8.573-18.537,12.515-27.914
			c6.396-15.22,13.16-30.27,19.817-45.366c4.36-9.893,8.946-19.711,13.182-29.637c7.75-18.16,15.853-36.162,23.709-54.273
			c5.592-12.89,11.836-25.503,17.231-38.472c7.709-18.526,16.011-36.782,24.171-55.105c4.128-9.267,7.997-18.647,12.104-28.264
			C808.739,105.364,778.651,105.364,748.223,105.364z M282.544,417.407c14.977-33.992,29.849-67.748,44.459-100.907
			c-31.219-70.838-62.213-141.168-92.966-210.951c-30.112,0-59.471,0-89.219,0c1.92,4.074,3.758,7.647,5.314,11.34
			c4.08,9.676,8.387,19.244,12.728,28.807c8.353,18.403,16.114,37.074,24.299,55.555c4.254,9.607,8.679,19.16,12.835,28.791
			c6.541,15.153,13.182,30.267,19.845,45.366c5.674,12.857,11.24,25.762,17.166,38.517c8.316,17.902,15.79,36.195,23.616,54.325
			c4.524,10.479,8.962,20.994,13.576,31.434C276.818,405.614,279.715,411.424,282.544,417.407z M338.833,289.68
			c14.872-33.773,29.609-67.241,44.176-100.321c-12.479-28.254-24.826-56.211-37.081-83.958c-29.481,0-58.56,0-88.263,0
			C284.771,166.941,311.688,228.051,338.833,289.68z M569.937,509.938c30.656,0,60.984,0,91.247,0
			c2.15-5.061,4.065-9.779,6.145-14.425c5.492-12.266,11.174-24.45,16.455-36.806c0.754-1.764,2.089-3.821,0.974-6.323
			c-8.487-19.03-16.809-38.134-25.242-57.188c-5.373-12.143-10.941-24.2-16.197-36.394c-1.011-2.343-1.488-4.855-3.679-6.988
			C616.311,404.736,593.166,457.241,569.937,509.938z"/>
		<path fill-rule="evenodd" clip-rule="evenodd" fill="#626FA9" d="M546.123,134.756c-17.38,39.46-34.354,77.999-51.511,116.954
			c-17.216-39.029-34.226-77.594-51.557-116.885c16.907-38.396,34.126-77.5,51.54-117.05
			C511.984,57.254,529.161,96.248,546.123,134.756z M494.481,197.376c0.545-0.585,1.163-0.979,1.392-1.535
			c7.941-19.268,16.331-38.338,25.227-57.183c1.323-2.803,1.095-5.307-0.207-8.073c-4.924-10.471-9.663-21.019-13.988-31.767
			c-3.63-9.02-8.077-17.709-12.216-26.659c-0.545,0.585-1.163,0.979-1.393,1.534c-7.941,19.268-16.331,38.338-25.227,57.184
			c-1.323,2.802-1.095,5.307,0.207,8.073c4.925,10.47,9.662,21.018,13.988,31.767C485.895,179.735,490.343,188.426,494.481,197.376z
			"/>
	</g>
	<g>
		<path fill="#ABABAB" d="M1023.168,198.548l49.428,169.16l49.121-169.16h40.525l49.428,169.16l48.814-169.16h42.366
			l-71.226,214.904h-42.674l-47.893-161.178l-48.507,161.178h-42.367l-71.226-214.904H1023.168z"/>
		<path fill="#ABABAB" d="M1476.298,413.452l-37.147-63.55c-2.456,0.308-4.912,0.308-7.675,0.308h-48.508v63.242h-41.139V198.548
			h89.646c55.568,0,87.189,26.71,87.189,73.989c0,33.77-15.043,58.023-42.674,69.689l47.279,71.226H1476.298z M1382.968,313.982
			h48.508c30.7,0,47.893-13.201,47.893-40.218c0-26.402-17.192-39.297-47.893-39.297h-48.508V313.982z"/>
		<path fill="#ABABAB" d="M1620.278,198.548v214.904h-41.14V198.548H1620.278z"/>
		<path fill="#ABABAB" d="M1834.259,306.614h35.92v80.742c-22.104,16.579-55.261,27.938-85.041,27.938
			c-64.164,0-113.592-47.586-113.592-109.294s50.349-108.68,116.048-108.68c31.008,0,62.63,11.973,84.12,30.7l-23.332,30.087
			c-16.271-15.043-38.99-24.254-60.788-24.254c-41.445,0-73.988,31.622-73.988,72.146c0,40.832,32.85,72.454,74.296,72.454
			c14.736,0,31.621-5.219,46.357-13.508V306.614z"/>
		<path fill="#ABABAB" d="M1974.247,198.548v91.795h107.146v-91.795h41.14v214.904h-41.14v-87.189h-107.146v87.189h-41.139V198.548
			H1974.247z"/>
		<path fill="#ABABAB" d="M2342.341,198.548v36.534h-66.928v178.37h-41.445v-178.37h-66.928v-36.534H2342.341z"/>
		<path fill="#626FA9" d="M2457.464,234.161c-19.342,0-31.93,7.061-31.93,20.263c0,43.594,115.436,19.955,115.128,97.013
			c0,40.219-34.999,63.551-82.277,63.551c-34.385,0-67.849-13.814-90.874-34.385l17.192-34.691
			c22.104,19.648,51.27,31.621,74.295,31.621c23.026,0,36.841-8.596,36.841-23.639c0-44.823-115.435-19.342-115.435-95.786
			c0-37.455,32.236-61.401,80.437-61.401c28.551,0,57.103,9.21,77.672,22.719l-16.578,35.612
			C2498.909,241.222,2474.042,234.161,2457.464,234.161z"/>
		<path fill="#626FA9" d="M2746.35,198.548v36.534h-66.928v178.37h-41.445v-178.37h-66.928v-36.534H2746.35z"/>
		<path fill="#626FA9" d="M2925.329,413.452l-37.147-63.55c-2.456,0.308-4.912,0.308-7.675,0.308h-48.508v63.242h-41.139V198.548
			h89.646c55.568,0,87.189,26.71,87.189,73.989c0,33.77-15.043,58.023-42.674,69.689l47.279,71.226H2925.329z M2831.999,313.982
			h48.508c30.7,0,47.893-13.201,47.893-40.218c0-26.402-17.192-39.297-47.893-39.297h-48.508V313.982z"/>
		<path fill="#626FA9" d="M3185.665,198.548v35.92H3069.31v53.112h104.382v35.92H3069.31v54.032h120.039v35.92H3028.17V198.548
			H3185.665z"/>
		<path fill="#626FA9" d="M3386.44,368.016h-104.996l-19.034,45.437h-42.674l94.251-214.904h42.674l93.023,214.904h-44.209
			L3386.44,368.016z M3371.704,332.71l-37.455-90.26l-38.068,90.26H3371.704z"/>
		<path fill="#626FA9" d="M3538.708,198.548l67.542,137.847l67.234-137.847h47.279v214.904h-37.455l-0.307-153.503l-63.551,131.399
			h-26.71l-63.55-131.399v153.503h-38.069V198.548H3538.708z"/>
	</g>
</g>
</svg>
